<?xml version="1.0" encoding="UTF-8" ?>
<!DOCTYPE svg PUBLIC "-//W3C//DTD SVG 1.1//EN" "http://www.w3.org/Graphics/SVG/1.1/DTD/svg11.dtd">
<svg width="721pt" height="536pt" viewBox="0 0 721 536" version="1.1" xmlns="http://www.w3.org/2000/svg">
<g id="#001c0c4d">
<path fill="#001c0c" opacity="0.30" d=" M 336.13 0.00 L 385.90 0.00 C 391.85 1.21 397.94 1.39 403.95 2.13 C 461.00 9.02 516.50 29.54 563.84 62.22 C 576.53 70.58 588.51 80.01 599.85 90.12 C 608.58 97.33 616.05 105.89 624.24 113.69 C 645.25 136.00 663.39 161.03 678.03 187.95 C 688.23 205.78 695.92 224.91 702.90 244.18 C 709.48 263.99 714.60 284.32 717.78 304.96 C 719.11 312.65 719.62 320.45 721.00 328.13 L 721.00 397.90 C 720.03 402.89 719.59 407.96 719.04 413.00 C 715.25 440.67 708.61 468.65 693.60 492.55 C 688.19 501.54 680.81 509.11 673.16 516.20 C 666.56 521.94 658.97 526.50 650.91 529.88 C 644.55 532.72 637.65 533.95 631.03 536.00 L 588.98 536.00 C 580.32 534.04 571.54 532.55 563.01 530.03 C 547.62 525.38 532.41 520.01 517.94 512.97 C 513.91 510.96 509.70 509.33 505.66 507.36 C 489.30 498.59 472.97 489.73 457.33 479.72 C 440.54 468.99 424.07 457.76 408.09 445.85 C 396.63 437.43 384.17 430.47 371.13 424.82 C 351.03 416.81 329.66 411.95 308.02 410.90 C 297.39 409.80 286.65 409.45 276.01 410.67 C 230.30 412.74 185.81 424.33 141.37 434.35 C 123.42 438.46 105.32 442.05 87.03 444.30 C 78.75 445.51 70.38 444.84 62.05 445.05 C 45.13 444.89 27.39 439.00 16.32 425.66 C 5.68 412.83 2.55 395.92 0.00 379.93 L 0.00 336.09 C 1.48 327.19 1.71 318.13 3.30 309.24 C 12.96 241.08 42.91 175.98 88.16 124.13 C 93.11 117.80 99.40 112.71 104.36 106.39 C 108.96 101.64 114.31 97.69 118.74 92.77 C 142.35 71.59 168.58 53.20 196.96 39.01 C 234.56 19.36 275.88 7.05 317.97 2.09 C 324.00 1.18 330.14 1.25 336.13 0.00 Z" />
</g>
</svg>
