<?xml version="1.0" encoding="UTF-8" ?>
<!DOCTYPE svg PUBLIC "-//W3C//DTD SVG 1.1//EN" "http://www.w3.org/Graphics/SVG/1.1/DTD/svg11.dtd">
<svg width="1754pt" height="562pt" viewBox="0 0 1754 562" version="1.1" xmlns="http://www.w3.org/2000/svg">
<g id="#ffffffff">
</g>
<g id="#005f31ff">
<path fill="#005f31" opacity="1.00" d=" M 1535.35 77.44 C 1552.97 70.30 1572.10 67.50 1591.03 67.49 C 1612.00 67.43 1633.10 70.67 1652.70 78.26 C 1669.64 84.78 1685.33 94.42 1699.03 106.30 C 1685.15 131.57 1671.22 156.80 1657.36 182.08 C 1643.67 170.13 1629.27 158.04 1611.82 152.11 C 1603.94 149.72 1594.80 147.96 1587.15 151.95 C 1581.02 154.94 1578.33 163.73 1582.83 169.19 C 1588.10 175.87 1595.99 179.72 1603.46 183.41 C 1616.16 189.11 1628.99 194.68 1640.70 202.28 C 1653.89 210.69 1666.29 221.38 1673.38 235.59 C 1682.12 252.86 1683.58 272.91 1681.50 291.89 C 1679.40 310.31 1672.21 328.13 1660.74 342.71 C 1648.90 357.81 1633.43 370.04 1616.05 378.14 C 1598.24 386.47 1578.56 390.27 1558.98 390.73 C 1525.05 391.82 1491.34 381.94 1462.17 364.87 C 1447.50 356.36 1433.91 346.09 1421.37 334.69 C 1439.15 307.74 1456.94 280.79 1474.74 253.85 C 1485.74 267.93 1498.75 280.73 1514.29 289.72 C 1526.60 296.82 1540.70 301.35 1555.02 300.83 C 1560.45 300.59 1566.33 299.25 1570.19 295.14 C 1573.15 291.99 1573.48 286.65 1570.46 283.42 C 1565.29 277.55 1557.89 274.34 1550.92 271.17 C 1533.37 263.93 1515.92 255.80 1500.97 243.92 C 1489.83 235.21 1480.39 224.06 1474.92 210.93 C 1467.71 193.99 1467.17 174.95 1469.97 156.97 C 1472.77 139.15 1480.43 122.10 1492.20 108.40 C 1503.79 94.77 1518.77 84.11 1535.35 77.44 Z" />
<path fill="#005f31" opacity="1.00" d=" M 886.96 74.46 C 922.93 74.47 958.89 74.47 994.86 74.47 C 998.34 105.02 1001.80 135.59 1005.27 166.15 C 1008.13 191.53 1009.94 217.05 1010.29 242.60 C 1015.64 223.53 1021.90 204.70 1029.45 186.39 C 1045.51 148.99 1062.01 111.78 1078.27 74.47 C 1117.76 74.48 1157.26 74.46 1196.75 74.47 C 1142.54 177.44 1088.33 280.41 1034.10 383.38 C 1001.89 383.38 969.67 383.37 937.46 383.38 C 920.61 280.41 903.74 177.45 886.96 74.46 Z" />
<path fill="#005f31" opacity="1.00" d=" M 1268.53 74.48 C 1307.82 74.46 1347.11 74.47 1386.40 74.48 C 1390.83 109.69 1395.27 144.90 1399.70 180.12 C 1354.31 148.20 1308.94 116.27 1263.58 84.32 C 1265.22 81.04 1266.88 77.76 1268.53 74.48 Z" />
<path fill="#005f31" opacity="1.00" d=" M 1113.06 383.38 C 1159.29 291.49 1205.55 199.61 1251.80 107.73 C 1302.56 143.46 1353.33 179.18 1404.09 214.91 C 1411.15 271.07 1418.24 327.22 1425.30 383.37 C 1389.94 383.36 1354.58 383.42 1319.23 383.34 C 1318.59 369.64 1317.85 355.95 1317.17 342.25 C 1293.30 342.26 1269.43 342.23 1245.57 342.27 C 1240.17 355.98 1234.74 369.68 1229.31 383.38 C 1190.56 383.37 1151.81 383.38 1113.06 383.38 M 1296.08 217.91 C 1289.13 235.02 1282.10 252.09 1275.13 269.19 C 1287.80 269.19 1300.47 269.20 1313.14 269.19 C 1312.26 237.37 1309.60 205.57 1310.79 173.73 C 1306.43 188.63 1301.56 203.38 1296.08 217.91 Z" />
</g>
<g id="#1d1d1bff">
<path fill="#1d1d1b" opacity="1.00" d=" M 89.08 74.46 C 125.51 74.49 161.95 74.45 198.38 74.48 C 189.49 124.04 180.59 173.60 171.70 223.16 C 169.68 234.73 167.45 246.28 166.02 257.95 C 165.10 265.34 164.78 273.22 167.94 280.16 C 170.32 285.52 175.21 289.71 180.97 290.98 C 188.81 292.74 197.85 291.64 204.03 286.15 C 209.10 281.78 211.44 275.26 213.46 269.08 C 217.47 256.28 219.95 243.07 222.39 229.90 C 231.53 178.10 240.68 126.29 249.81 74.48 C 286.14 74.46 322.46 74.48 358.79 74.47 C 350.29 122.58 341.80 170.70 333.30 218.81 C 330.11 236.62 327.27 254.49 323.03 272.09 C 318.56 290.87 312.99 309.62 303.54 326.56 C 289.47 351.39 266.55 370.87 240.07 381.39 C 223.26 388.20 205.12 391.43 187.02 391.58 C 168.40 391.70 149.60 389.77 131.78 384.18 C 106.92 376.60 84.19 360.53 71.02 337.85 C 57.80 315.42 54.76 288.40 57.32 262.87 C 59.80 237.72 64.63 212.88 68.94 187.99 C 75.66 150.15 82.34 112.30 89.08 74.46 Z" />
<path fill="#1d1d1b" opacity="1.00" d=" M 410.44 74.47 C 446.87 74.46 483.31 74.48 519.74 74.47 C 532.93 112.34 546.29 150.16 559.31 188.10 C 564.52 203.51 569.06 219.16 572.29 235.11 C 581.13 185.05 590.15 135.01 599.05 84.96 C 599.88 81.53 599.89 77.67 601.27 74.53 C 637.19 74.38 673.13 74.51 709.05 74.47 C 690.68 177.44 672.28 280.40 653.90 383.37 C 617.53 383.38 581.17 383.37 544.80 383.38 C 526.42 330.24 508.04 277.10 489.68 223.96 C 488.32 248.01 484.22 271.80 480.30 295.53 C 475.17 324.82 469.96 354.09 464.80 383.37 C 428.36 383.39 391.93 383.37 355.49 383.37 C 373.80 280.41 392.11 177.44 410.44 74.47 Z" />
<path fill="#1d1d1b" opacity="1.00" d=" M 766.21 74.47 C 802.71 74.47 839.21 74.47 875.72 74.47 C 857.41 177.44 839.08 280.40 820.77 383.37 C 784.19 383.38 747.61 383.38 711.04 383.37 C 729.42 280.40 747.80 177.43 766.21 74.47 Z" />
<path fill="#1d1d1b" opacity="1.00" d=" M 1683.77 412.48 C 1688.10 412.46 1692.44 412.46 1696.79 412.47 C 1691.78 417.27 1686.70 421.98 1681.75 426.83 C 1679.41 426.88 1677.05 426.87 1674.75 426.88 C 1677.74 422.07 1680.77 417.29 1683.77 412.48 Z" />
<path fill="#1d1d1b" opacity="1.00" d=" M 841.51 431.71 C 852.16 430.21 864.23 433.02 871.18 441.73 C 879.76 452.55 878.48 468.89 870.82 479.85 C 860.49 495.07 836.96 498.72 822.33 487.80 C 810.65 478.69 809.69 460.92 816.55 448.61 C 821.54 439.38 831.15 433.02 841.51 431.71 M 842.45 451.63 C 834.68 453.57 831.27 463.94 835.66 470.40 C 838.38 474.38 844.14 475.12 848.32 473.19 C 854.53 470.38 857.36 461.98 854.16 455.98 C 851.96 451.92 846.73 450.39 842.45 451.63 Z" />
<path fill="#1d1d1b" opacity="1.00" d=" M 1244.52 431.73 C 1252.50 430.66 1261.04 431.75 1267.95 436.09 C 1273.98 439.81 1278.24 446.14 1279.58 453.09 C 1281.61 463.93 1278.52 475.85 1270.69 483.78 C 1263.91 491.02 1253.76 494.44 1243.97 493.99 C 1235.18 493.87 1226.06 490.28 1220.81 482.99 C 1213.29 472.74 1213.99 458.06 1220.37 447.43 C 1225.47 438.85 1234.66 433.03 1244.52 431.73 M 1245.41 451.68 C 1237.76 453.72 1234.47 463.93 1238.75 470.35 C 1241.42 474.30 1247.08 475.10 1251.26 473.28 C 1257.65 470.53 1260.58 461.89 1257.20 455.82 C 1254.91 451.81 1249.67 450.38 1245.41 451.68 Z" />
<path fill="#1d1d1b" opacity="1.00" d=" M 413.68 432.72 C 424.16 429.74 436.18 431.79 444.59 438.89 C 441.80 443.78 439.01 448.66 436.22 453.54 C 432.44 450.55 428.17 446.78 423.01 447.44 C 420.76 447.68 420.03 450.91 422.06 452.05 C 426.89 454.87 432.63 456.26 436.71 460.31 C 441.56 464.78 442.09 472.25 440.24 478.24 C 437.66 486.44 429.74 491.96 421.49 493.34 C 409.72 495.52 397.68 490.79 388.92 483.02 C 392.46 477.80 396.06 472.62 399.59 467.40 C 403.86 472.42 409.95 477.30 416.98 476.30 C 419.21 476.19 420.16 473.11 417.92 472.19 C 412.46 469.52 406.26 467.71 402.14 462.95 C 397.68 458.09 397.51 450.63 399.83 444.75 C 402.16 438.79 407.63 434.48 413.68 432.72 Z" />
<path fill="#1d1d1b" opacity="1.00" d=" M 1333.44 432.57 C 1343.80 429.83 1355.56 431.89 1363.83 438.89 C 1361.05 443.78 1358.24 448.65 1355.48 453.54 C 1352.07 450.84 1348.48 447.76 1343.98 447.32 C 1342.28 447.04 1339.89 447.98 1340.10 450.03 C 1340.30 452.07 1342.53 452.76 1344.10 453.56 C 1349.66 455.93 1355.93 458.50 1358.85 464.19 C 1362.10 471.34 1360.33 480.34 1354.90 485.95 C 1349.10 492.15 1340.16 494.47 1331.91 493.72 C 1323.03 493.04 1314.80 488.77 1308.16 483.02 C 1311.71 477.81 1315.29 472.61 1318.84 467.40 C 1322.72 471.94 1327.81 476.18 1334.05 476.46 C 1335.82 476.57 1338.50 476.14 1338.58 473.86 C 1337.81 472.00 1335.74 471.51 1334.12 470.75 C 1329.21 468.78 1324.12 466.46 1320.77 462.20 C 1316.93 457.40 1316.89 450.53 1318.99 444.98 C 1321.32 438.72 1327.11 434.28 1333.44 432.57 Z" />
<path fill="#1d1d1b" opacity="1.00" d=" M 1563.55 437.66 C 1573.84 430.38 1588.11 429.34 1599.47 434.71 C 1598.25 441.37 1596.98 448.01 1595.81 454.68 C 1590.51 451.80 1583.90 449.69 1578.10 452.37 C 1570.70 455.46 1568.33 467.09 1574.86 472.18 C 1580.39 475.94 1587.59 473.59 1592.88 470.52 C 1591.50 477.69 1590.17 484.87 1588.86 492.05 C 1580.00 495.27 1569.59 494.60 1561.63 489.37 C 1556.30 485.99 1552.46 480.55 1550.72 474.52 C 1546.96 461.18 1552.08 445.65 1563.55 437.66 Z" />
<path fill="#1d1d1b" opacity="1.00" d=" M 65.25 432.76 C 72.55 432.75 79.85 432.75 87.15 432.75 C 85.12 443.83 83.06 454.90 81.04 465.97 C 80.73 468.19 80.09 470.64 81.19 472.75 C 82.94 475.68 88.01 475.28 89.41 472.20 C 90.60 469.97 91.01 467.44 91.53 465.00 C 93.56 454.25 95.45 443.48 97.49 432.74 C 104.76 432.77 112.02 432.74 119.28 432.75 C 117.29 443.65 115.28 454.55 113.28 465.45 C 111.82 473.11 109.95 481.43 103.86 486.85 C 96.03 494.26 84.10 495.44 74.06 492.63 C 68.01 490.96 62.48 486.71 60.24 480.72 C 57.72 474.39 58.97 467.46 60.10 460.97 C 61.79 451.56 63.55 442.16 65.25 432.76 Z" />
<path fill="#1d1d1b" opacity="1.00" d=" M 118.57 492.44 C 122.24 472.54 125.90 452.64 129.60 432.75 C 136.88 432.74 144.16 432.78 151.44 432.73 C 155.02 442.90 159.21 452.88 161.99 463.32 C 164.02 453.15 165.79 442.94 167.73 432.76 C 174.94 432.75 182.16 432.75 189.38 432.75 C 185.70 452.65 182.03 472.55 178.35 492.44 C 171.02 492.40 163.70 492.53 156.38 492.37 C 152.87 482.12 149.07 471.98 145.51 461.75 C 144.66 472.10 142.22 482.23 140.46 492.45 C 133.16 492.43 125.87 492.45 118.57 492.44 Z" />
<path fill="#1d1d1b" opacity="1.00" d=" M 189.75 492.44 C 193.42 472.54 197.09 452.64 200.78 432.75 C 208.10 432.75 215.43 432.76 222.75 432.75 C 219.10 452.65 215.40 472.53 211.74 492.43 C 204.41 492.45 197.08 492.44 189.75 492.44 Z" />
<path fill="#1d1d1b" opacity="1.00" d=" M 224.97 432.76 C 232.17 432.73 239.38 432.78 246.58 432.73 C 247.73 443.38 249.62 454.01 249.41 464.74 C 249.57 464.54 249.89 464.13 250.05 463.92 C 253.40 453.12 258.81 443.12 263.27 432.76 C 271.18 432.75 279.10 432.75 287.01 432.75 C 276.16 452.66 265.32 472.57 254.43 492.45 C 247.97 492.42 241.52 492.45 235.07 492.44 C 231.70 472.54 228.32 452.65 224.97 432.76 Z" />
<path fill="#1d1d1b" opacity="1.00" d=" M 290.06 432.75 C 303.70 432.75 317.34 432.75 330.99 432.75 C 330.01 438.16 329.04 443.56 328.06 448.97 C 321.67 449.04 315.27 448.83 308.89 449.05 C 307.85 450.62 308.07 452.86 307.54 454.68 C 313.63 454.69 319.72 454.68 325.81 454.68 C 324.89 459.73 323.98 464.77 323.05 469.81 C 316.96 469.81 310.87 469.81 304.78 469.82 C 304.39 471.94 304.00 474.07 303.62 476.21 C 310.65 476.16 317.68 476.34 324.70 476.11 C 323.96 481.59 322.74 486.99 321.81 492.43 C 307.55 492.45 293.29 492.44 279.03 492.43 C 282.71 472.54 286.38 452.64 290.06 432.75 Z" />
<path fill="#1d1d1b" opacity="1.00" d=" M 330.61 492.44 C 334.28 472.54 337.94 452.64 341.64 432.75 C 351.10 432.88 360.58 432.47 370.03 433.00 C 377.31 433.57 385.70 435.94 389.23 442.98 C 392.65 450.61 390.89 460.87 384.03 466.05 C 381.75 467.84 378.97 468.74 376.24 469.58 C 379.12 477.19 381.97 484.81 384.81 492.44 C 377.43 492.44 370.05 492.44 362.67 492.44 C 360.48 485.25 358.35 478.04 356.17 470.84 C 354.82 478.04 353.51 485.24 352.17 492.44 C 344.98 492.44 337.80 492.44 330.61 492.44 M 360.47 447.54 C 359.72 451.44 358.98 455.34 358.28 459.25 C 361.13 459.10 364.23 459.29 366.80 457.79 C 369.55 456.22 370.31 451.98 368.38 449.52 C 366.32 447.45 363.13 447.80 360.47 447.54 Z" />
<path fill="#1d1d1b" opacity="1.00" d=" M 442.68 492.44 C 446.35 472.54 450.02 452.64 453.71 432.75 C 461.03 432.76 468.36 432.75 475.68 432.75 C 472.02 452.64 468.32 472.52 464.68 492.42 C 457.34 492.46 450.01 492.43 442.68 492.44 Z" />
<path fill="#1d1d1b" opacity="1.00" d=" M 487.08 432.76 C 497.24 432.96 507.49 432.12 517.56 433.78 C 527.68 435.38 536.39 443.74 538.02 453.91 C 540.71 467.45 533.30 482.08 520.76 487.85 C 506.81 494.39 490.96 491.93 476.06 492.44 C 479.72 472.54 483.40 452.65 487.08 432.76 M 505.43 450.60 C 503.95 458.58 502.47 466.56 501.06 474.56 C 504.27 474.31 507.62 474.00 510.45 472.30 C 516.35 469.10 518.38 460.67 515.03 454.99 C 513.01 451.71 508.99 450.81 505.43 450.60 Z" />
<path fill="#1d1d1b" opacity="1.00" d=" M 533.54 492.43 C 543.92 472.54 554.30 452.64 564.69 432.75 C 572.57 432.75 580.44 432.75 588.32 432.75 C 590.93 452.65 593.51 472.54 596.09 492.44 C 589.02 492.44 581.94 492.44 574.86 492.44 C 574.72 489.79 574.58 487.14 574.44 484.50 C 569.68 484.49 564.93 484.52 560.17 484.48 C 559.04 487.12 557.95 489.77 556.88 492.43 C 549.10 492.45 541.32 492.44 533.54 492.43 M 573.17 452.06 C 571.29 458.34 568.59 464.33 566.07 470.38 C 568.58 470.37 571.09 470.37 573.60 470.37 C 573.42 464.27 572.96 458.17 573.17 452.06 Z" />
<path fill="#1d1d1b" opacity="1.00" d=" M 610.08 432.75 C 620.20 432.96 630.42 432.13 640.47 433.77 C 650.64 435.33 659.42 443.74 661.03 453.97 C 663.70 467.50 656.27 482.10 643.74 487.85 C 629.79 494.38 613.95 491.93 599.07 492.44 C 602.72 472.54 606.41 452.65 610.08 432.75 M 628.44 450.58 C 626.93 458.57 625.48 466.56 624.06 474.56 C 627.25 474.31 630.58 474.01 633.40 472.34 C 639.33 469.15 641.39 460.69 638.03 454.99 C 636.01 451.71 631.99 450.82 628.44 450.58 Z" />
<path fill="#1d1d1b" opacity="1.00" d=" M 675.00 432.76 C 688.64 432.75 702.28 432.75 715.92 432.75 C 714.95 438.16 713.98 443.56 713.00 448.97 C 706.50 449.00 700.01 448.90 693.52 449.03 C 693.17 450.91 692.82 452.79 692.49 454.68 C 698.57 454.69 704.66 454.68 710.75 454.69 C 709.83 459.73 708.92 464.77 707.99 469.81 C 701.90 469.81 695.81 469.81 689.73 469.82 C 689.33 471.95 688.94 474.07 688.56 476.21 C 695.64 476.26 702.72 476.13 709.80 476.29 C 708.68 481.65 707.76 487.05 706.74 492.43 C 692.49 492.45 678.23 492.44 663.97 492.44 C 667.65 472.54 671.32 452.65 675.00 432.76 Z" />
<path fill="#1d1d1b" opacity="1.00" d=" M 755.19 432.76 C 765.28 432.95 775.47 432.14 785.49 433.75 C 795.73 435.29 804.58 443.76 806.16 454.07 C 808.78 467.60 801.32 482.18 788.77 487.89 C 774.84 494.38 759.03 491.93 744.17 492.44 C 747.83 472.54 751.52 452.65 755.19 432.76 M 773.52 450.61 C 772.07 458.60 770.57 466.57 769.17 474.57 C 773.92 474.39 779.18 473.21 782.17 469.17 C 785.17 464.98 785.86 458.63 782.68 454.36 C 780.55 451.52 776.84 450.83 773.52 450.61 Z" />
<path fill="#1d1d1b" opacity="1.00" d=" M 910.65 432.75 C 917.86 432.75 925.07 432.75 932.29 432.75 C 933.44 443.54 935.17 454.28 935.38 465.14 C 938.63 453.85 944.34 443.50 948.96 432.75 C 956.87 432.75 964.78 432.75 972.70 432.75 C 961.85 452.65 950.99 472.54 940.14 492.44 C 933.67 492.44 927.21 492.44 920.75 492.44 C 917.37 472.55 914.01 452.65 910.65 432.75 Z" />
<path fill="#1d1d1b" opacity="1.00" d=" M 955.78 492.43 C 966.16 472.53 976.54 452.63 986.94 432.75 C 994.80 432.75 1002.67 432.76 1010.55 432.74 C 1013.17 452.64 1015.74 472.54 1018.33 492.44 C 1011.25 492.44 1004.18 492.44 997.10 492.44 C 996.96 489.78 996.82 487.14 996.68 484.50 C 991.90 484.50 987.13 484.50 982.37 484.50 C 981.28 487.15 980.19 489.79 979.11 492.44 C 971.33 492.44 963.56 492.45 955.78 492.43 M 988.32 470.37 C 990.82 470.37 993.32 470.37 995.84 470.38 C 995.65 464.29 995.21 458.21 995.39 452.13 C 993.50 458.38 990.82 464.35 988.32 470.37 Z" />
<path fill="#1d1d1b" opacity="1.00" d=" M 1021.30 492.44 C 1025.03 472.52 1028.53 452.55 1032.43 432.67 C 1039.75 432.85 1047.06 432.71 1054.38 432.75 C 1051.84 446.51 1049.26 460.26 1046.72 474.02 C 1052.83 474.04 1058.94 474.03 1065.06 474.03 C 1063.94 480.16 1062.76 486.29 1061.65 492.43 C 1048.20 492.45 1034.75 492.44 1021.30 492.44 Z" />
<path fill="#1d1d1b" opacity="1.00" d=" M 1078.13 432.75 C 1091.77 432.76 1105.41 432.75 1119.05 432.76 C 1118.08 438.16 1117.10 443.56 1116.13 448.97 C 1109.65 448.97 1103.17 448.96 1096.70 448.97 C 1096.33 450.87 1095.94 452.77 1095.60 454.68 C 1101.69 454.70 1107.79 454.67 1113.89 454.70 C 1112.95 459.73 1112.05 464.77 1111.12 469.81 C 1105.03 469.81 1098.94 469.81 1092.85 469.82 C 1092.45 471.94 1092.06 474.07 1091.69 476.21 C 1098.75 476.24 1105.82 476.17 1112.90 476.25 C 1111.85 481.64 1110.87 487.04 1109.87 492.43 C 1095.63 492.46 1081.39 492.42 1067.14 492.45 C 1070.73 472.54 1074.47 452.65 1078.13 432.75 Z" />
<path fill="#1d1d1b" opacity="1.00" d=" M 1158.31 432.76 C 1168.36 432.95 1178.50 432.15 1188.48 433.73 C 1197.51 435.08 1205.60 441.70 1208.39 450.44 C 1211.73 460.99 1208.89 473.26 1201.16 481.19 C 1195.19 487.52 1186.65 490.75 1178.15 491.76 C 1167.91 492.92 1157.58 492.27 1147.30 492.44 C 1150.96 472.55 1154.65 452.66 1158.31 432.76 M 1176.65 450.62 C 1175.21 458.60 1173.70 466.57 1172.31 474.56 C 1176.80 474.38 1181.72 473.38 1184.79 469.79 C 1188.17 465.77 1189.01 459.38 1186.18 454.85 C 1184.12 451.67 1180.17 450.80 1176.65 450.62 Z" />
<path fill="#1d1d1b" opacity="1.00" d=" M 1355.66 492.44 C 1366.03 472.53 1376.41 452.63 1386.81 432.75 C 1394.68 432.75 1402.56 432.76 1410.43 432.75 C 1413.04 452.64 1415.62 472.54 1418.21 492.44 C 1411.13 492.44 1404.05 492.44 1396.98 492.44 C 1396.83 489.79 1396.69 487.14 1396.55 484.50 C 1391.78 484.50 1387.02 484.50 1382.26 484.49 C 1381.15 487.14 1380.05 489.78 1378.98 492.44 C 1371.20 492.44 1363.43 492.45 1355.66 492.44 M 1388.20 470.38 C 1390.69 470.37 1393.20 470.37 1395.72 470.38 C 1395.53 464.26 1395.08 458.14 1395.28 452.02 C 1393.43 458.32 1390.70 464.31 1388.20 470.38 Z" />
<path fill="#1d1d1b" opacity="1.00" d=" M 1432.18 432.76 C 1441.45 432.85 1450.72 432.53 1459.98 432.95 C 1467.26 433.44 1475.64 435.69 1479.38 442.60 C 1483.85 451.60 1481.49 464.27 1472.63 469.74 C 1464.82 474.83 1455.13 474.17 1446.24 474.16 C 1445.14 480.25 1444.00 486.34 1442.91 492.43 C 1435.66 492.45 1428.42 492.44 1421.18 492.44 C 1424.83 472.54 1428.53 452.65 1432.18 432.76 M 1451.12 448.31 C 1450.44 451.73 1449.78 455.16 1449.18 458.60 C 1452.08 458.42 1455.29 458.64 1457.87 457.00 C 1460.24 455.50 1460.94 451.29 1458.42 449.61 C 1456.22 448.30 1453.55 448.50 1451.12 448.31 Z" />
<path fill="#1d1d1b" opacity="1.00" d=" M 1493.03 432.75 C 1500.32 432.75 1507.62 432.75 1514.93 432.75 C 1512.86 444.00 1510.75 455.24 1508.71 466.49 C 1508.39 468.81 1507.77 471.61 1509.54 473.52 C 1511.70 475.55 1515.83 474.99 1517.16 472.23 C 1518.48 469.70 1518.90 466.84 1519.48 464.08 C 1521.41 453.64 1523.31 443.20 1525.23 432.76 C 1532.50 432.75 1539.78 432.75 1547.05 432.75 C 1544.88 444.49 1542.78 456.23 1540.56 467.96 C 1539.16 474.75 1537.10 481.91 1531.77 486.71 C 1523.45 494.66 1510.49 495.66 1500.00 492.02 C 1493.78 489.86 1488.61 484.61 1487.20 478.11 C 1485.44 470.72 1487.64 463.21 1488.78 455.90 C 1490.20 448.18 1491.60 440.47 1493.03 432.75 Z" />
<path fill="#1d1d1b" opacity="1.00" d=" M 1593.81 492.43 C 1604.19 472.54 1614.57 452.64 1624.96 432.75 C 1632.82 432.74 1640.68 432.78 1648.55 432.73 C 1651.24 452.62 1653.75 472.54 1656.36 492.44 C 1649.28 492.44 1642.21 492.44 1635.14 492.44 C 1634.98 489.78 1634.85 487.14 1634.71 484.50 C 1629.93 484.50 1625.16 484.49 1620.40 484.50 C 1619.30 487.15 1618.21 489.79 1617.13 492.44 C 1609.35 492.43 1601.58 492.45 1593.81 492.43 M 1626.35 470.38 C 1628.84 470.37 1631.36 470.37 1633.89 470.37 C 1633.66 464.29 1633.26 458.22 1633.42 452.14 C 1631.52 458.39 1628.85 464.36 1626.35 470.38 Z" />
<path fill="#1d1d1b" opacity="1.00" d=" M 1659.75 492.44 C 1663.41 472.54 1667.09 452.65 1670.77 432.75 C 1678.09 432.75 1685.41 432.75 1692.74 432.75 C 1689.09 452.65 1685.39 472.53 1681.74 492.43 C 1674.40 492.45 1667.07 492.44 1659.75 492.44 Z" />
</g>
</svg>
